<svg version="1.1" id="Layer_1" xmlns="http://www.w3.org/2000/svg" xmlns:xlink="http://www.w3.org/1999/xlink" x="0" y="0" viewBox="0 0 140 140" xml:space="preserve">
  <style>
    .st3{opacity:.2}.st4{fill:#263238}.st9{opacity:.2;fill:#fff;enable-background:new}
  </style>
  <path d="M0 0h140v140H0V0z" fill="none"/>
  <path d="M125.4 61.2c0-30.6-24.8-55.4-55.4-55.4S14.6 30.6 14.6 61.2c0 29 26.4 52.5 55.4 52.5v20.4c33.7-17 55.4-44.5 55.4-72.9z" fill="#00897b"/>
  <defs>
    <path id="SVGID_1_" d="M125.4 61.2c0-30.6-24.8-55.4-55.4-55.4S14.6 30.6 14.6 61.2c0 29 26.4 52.5 55.4 52.5v20.4c33.7-17 55.4-44.5 55.4-72.9z"/>
  </defs>
  <clipPath id="SVGID_2_">
    <use xlink:href="#SVGID_1_" overflow="visible"/>
  </clipPath>
  <linearGradient id="SVGID_3_" gradientUnits="userSpaceOnUse" x1="69.396" y1="84.034" x2="117.337" y2="36.093" gradientTransform="matrix(1 0 0 -1 0 142)">
    <stop offset="0" stop-color="#263238" stop-opacity=".2"/>
    <stop offset="1" stop-color="#263238" stop-opacity=".02"/>
  </linearGradient>
  <path d="M104.3 41.2l-7.3 20H56.9L40.8 81l59 59h39.5V76.2l-35-35z" clip-path="url(#SVGID_2_)" fill="url(#SVGID_3_)"/>
  <g class="st3">
    <path class="st4" d="M70 113c-28.9 0-55.2-23.3-55.4-52.2v.4c0 29 26.4 52.5 55.4 52.5v-.7zm0 20.4v.7c33.7-17.1 55.4-44.6 55.4-72.9v-.3c-.2 28.2-21.9 55.5-55.4 72.5z"/>
  </g>
  <g class="st3">
    <path class="st4" d="M82.4 83.1H45.9c-1.9 0-3.7-.7-5.2-2.1s-2.1-3.3-2.1-5.2v.7c0 1.9.7 3.7 2.1 5.2s3.3 2.1 5.2 2.1h36.5c1.9 0 3.7-.7 5.2-2.1 1.4-1.4 2.1-3.3 2.1-5.2v-.7c0 1.9-.7 3.7-2.1 5.2-1.5 1.4-3.3 2.1-5.2 2.1zm7.3-15.7L104.3 82v-.7L89.7 66.7v.7z"/>
  </g>
  <image width="91" height="69" xlink:href="35A7BE95965F1B8.png" transform="translate(30 31)" overflow="visible" opacity=".2"/>
  <path d="M89.7 55.8v-9.1c0-1.9-.7-3.7-2.1-5.2-1.4-1.4-3.3-2.1-5.2-2.1H45.9c-1.9 0-3.7.7-5.2 2.1-1.4 1.4-2.1 3.3-2.1 5.2v29.2c0 1.9.7 3.7 2.1 5.2s3.3 2.1 5.2 2.1h36.5c1.9 0 3.7-.7 5.2-2.1 1.4-1.4 2.1-3.3 2.1-5.2v-9.1l14.6 14.6V41.2L89.7 55.8z" fill="#f5f5f5"/>
  <path d="M38.7 46.7v14.6h65.6v-20L89.7 55.8v-9.1c0-1.9-.7-3.7-2.1-5.2-1.4-1.4-3.3-2.1-5.2-2.1H45.9c-1.9 0-3.7.7-5.2 2.1-1.3 1.4-2.1 3.3-2 5.2z" fill="#e0e0e0"/>
  <path d="M38.7 60.5h65.6v.7H38.7v-.7z" fill="#212121" fill-opacity=".02"/>
  <path d="M38.7 61.2h65.6v.8H38.7v-.8z" fill="#fff" fill-opacity=".05"/>
  <path class="st9" d="M45.9 40.1h36.5c1.9 0 3.7.7 5.2 2.1 1.4 1.4 2.1 3.3 2.1 5.2v-.7c0-1.9-.7-3.7-2.1-5.2-1.4-1.4-3.3-2.1-5.2-2.1H45.9c-1.9 0-3.7.7-5.2 2.1-1.4 1.4-2.1 3.3-2.1 5.2v.7c0-1.9.7-3.7 2.1-5.2 1.5-1.4 3.4-2.1 5.2-2.1zm43.8 15.7v.7l14.6-14.6v-.7L89.7 55.8z"/>
  <path class="st9" d="M70 6.6c30.5 0 55.2 24.6 55.4 55.1v-.4c0-30.6-24.8-55.4-55.4-55.4S14.6 30.6 14.6 61.2v.3C14.8 31.2 39.5 6.6 70 6.6z"/>
  <radialGradient id="SVGID_4_" cx="30.382" cy="120.246" r="113.159" gradientTransform="matrix(1 0 0 -1 0 142)" gradientUnits="userSpaceOnUse">
    <stop offset="0" stop-color="#fff" stop-opacity=".1"/>
    <stop offset="1" stop-color="#fff" stop-opacity="0"/>
  </radialGradient>
  <path d="M125.4 61.2c0-30.6-24.8-55.4-55.4-55.4S14.6 30.6 14.6 61.2c0 29 26.4 52.5 55.4 52.5v20.4c33.7-17 55.4-44.5 55.4-72.9z" fill="url(#SVGID_4_)"/>
</svg>